<?xml version="1.0" encoding="utf-8"?><!DOCTYPE svg PUBLIC "-//W3C//DTD SVG 1.1//EN" "http://www.w3.org/Graphics/SVG/1.1/DTD/svg11.dtd"><svg version="1.1" xmlns="http://www.w3.org/2000/svg" xmlns:xlink="http://www.w3.org/1999/xlink" width="32" height="32" viewBox="0 0 32 32" data-tags="android"><g fill="#444" transform="scale(0.03125 0.03125)"><path fill="rgb(61, 220, 132)" d="M1024 810.667h-1024c10.996-97.62 44.67-185.638 95.601-261.041l-1.308 2.054c40.353-61.72 92.677-112.273 154.028-149.415l19.626-11.012-86.187-145.493c-1.986-3.219-3.163-7.121-3.163-11.298 0-7.822 4.127-14.68 10.323-18.515l0.093-0.054c3.126-1.898 6.904-3.021 10.945-3.021 7.869 0 14.743 4.26 18.441 10.6l0.055 0.101 88.747 149.333c59.159-24.322 127.831-38.442 199.801-38.442 2.358 0 4.712 0.015 7.062 0.045l-0.356-0.004c1.888-0.025 4.118-0.039 6.351-0.039 70.774 0 138.25 14.125 199.761 39.709l-3.446-1.27 88.32-149.333c3.768-6.373 10.606-10.581 18.425-10.581 4.246 0 8.202 1.24 11.526 3.378l-0.085-0.051c6.114 3.921 10.107 10.683 10.107 18.377 0 4.256-1.222 8.226-3.334 11.58l0.053-0.090-86.187 145.92 21.333 11.947c63.108 39.707 115.018 91.482 153.705 152.471l1.175 1.982c46.839 71.889 79.601 157.201 92.224 248.938l0.363 3.222zM704 619.52c0 23.564 19.103 42.667 42.667 42.667v0c23.564 0 42.667-19.103 42.667-42.667v0c0-23.564-19.103-42.667-42.667-42.667v0c-23.564 0-42.667 19.103-42.667 42.667v0zM234.667 619.52c0 23.564 19.103 42.667 42.667 42.667v0c23.564 0 42.667-19.103 42.667-42.667v0c0-23.564-19.103-42.667-42.667-42.667v0c-23.564 0-42.667 19.103-42.667 42.667v0z" /></g></svg>